<svg xmlns="http://www.w3.org/2000/svg" width="20.945" height="41.908" viewBox="0 0 20.945 41.908">
    <path data-name="Icon ionic-ios-phone-portrait" d="M17.932 0H3.096a3.078 3.078 0 0 0-3.1 3.078v35.64a3.169 3.169 0 0 0 3.1 3.19h14.827a3.107 3.107 0 0 0 3.021-3.19V3.078A3 3 0 0 0 17.932 0zM9.075 2.15h2.806a.374.374 0 0 1 0 .748H9.075a.374.374 0 0 1 0-.748zm1.45 38.353a1.628 1.628 0 1 1 1.628-1.628 1.629 1.629 0 0 1-1.629 1.63zm8.75-4.582H1.684a.188.188 0 0 1-.187-.187V4.958a.188.188 0 0 1 .187-.187h17.591a.188.188 0 0 1 .187.187v30.776a.188.188 0 0 1-.187.187z"/>
</svg>
