<svg xmlns="http://www.w3.org/2000/svg" width="29.264" height="29.25" viewBox="0 0 29.264 29.25">
    <g data-name="Icon ionic-ios-megaphone">
        <path data-name="Path 28" d="M2.967 9.773a6.458 6.458 0 0 1 3.059-5.548.227.227 0 0 0-.12-.422 5.43 5.43 0 0 0-5.21 4.908 1 1 0 0 0-.7 1.048.958.958 0 0 0 .759 1.041 6.2 6.2 0 0 0 4.3 4.535.307.307 0 0 0 .267-.527 7.006 7.006 0 0 1-2.355-5.035z"/>
        <path data-name="Path 29" d="M28.287 3.853c-.07-.19-.148-.366-.225-.541a7.213 7.213 0 0 0-1.53-2.264A3.47 3.47 0 0 0 24.085 0a3.214 3.214 0 0 0-1.814.548 25.078 25.078 0 0 1-10.824 3.235c-2.932 0-2.77.014-2.77.014a6.593 6.593 0 0 0-.731 11.6c.851.71 1.659.619 1.484 1.561s-1.582 6.855-1.758 8.086-.2 1.934.281 2.531 3.48 1.673 4.781 1.673.97-.612.97-3.08-.654-9.26 1.16-9.26c3.4 0 5.168 1.216 7.826 2.229a3.768 3.768 0 0 0 1.413.33 3.468 3.468 0 0 0 2.44-1.28 7.286 7.286 0 0 0 1.526-2.262c.077-.183.155-.366.232-.562a16.419 16.419 0 0 0 .963-5.759 16.429 16.429 0 0 0-.977-5.751zm-1.87 11.039c-.45 1.1-1.237 1.983-1.891 1.983s-1.252-.879-1.7-1.983a14.5 14.5 0 0 1-.865-5.252 14.554 14.554 0 0 1 .865-5.266c.45-1.1 1.048-1.758 1.695-1.758s1.427.668 1.884 1.758a14.166 14.166 0 0 1 .014 10.519z"/>
    </g>
</svg>
