<svg xmlns="http://www.w3.org/2000/svg" width="31.508" height="29.243" viewBox="0 0 31.508 29.243">
    <g data-name="Icon ionic-ios-brush">
        <path data-name="Path 23" d="M8.271 16.545c-3.649 0-5.9 3.213-5.9 6.687a3.415 3.415 0 0 1-2.208 3.263.283.283 0 0 0-.12.408c1.174 1.73 4.451 2.341 6.7 2.341a8.638 8.638 0 0 0 1.533-.12c2.5-.45 5.632-1.751 6.377-5.414.86-4.255-2.733-7.165-6.382-7.165z"/>
        <path data-name="Path 24" d="M30.637.872A2.656 2.656 0 0 0 28.802 0a2.119 2.119 0 0 0-1.322.492L15.872 10.709a2.079 2.079 0 0 1-1.385.52h-.015a1.67 1.67 0 0 0-1.083.408l-3.769 3.08a.411.411 0 0 0-.1.506.412.412 0 0 0 .316.218c3.206.316 6.117 2.6 6.138 6.089a.416.416 0 0 0 .141.316.4.4 0 0 0 .563-.042l3.171-3.67a1.657 1.657 0 0 0 .422-1.02v-.089a2.175 2.175 0 0 1 .563-1.434L31.017 4.036a2.256 2.256 0 0 0-.38-3.164z"/>
    </g>
</svg>
