<svg xmlns="http://www.w3.org/2000/svg" width="44.221" height="26.522" viewBox="0 0 44.221 26.522">
    <path data-name="Icon ionic-ios-laptop" d="M39.792 23.525V1.575A1.594 1.594 0 0 0 38.208 0H6.013a1.588 1.588 0 0 0-1.584 1.575v21.95H0a2.674 2.674 0 0 0 1.74 2.09 12.219 12.219 0 0 0 4.531.9H37.95a12.2 12.2 0 0 0 4.448-.81 2.778 2.778 0 0 0 1.823-2.18h-4.429zM22.11.737a.368.368 0 1 1-.368.368.369.369 0 0 1 .368-.368zM6.087 2.225h32.047a.185.185 0 0 1 .184.184v19.462a.185.185 0 0 1-.184.184H6.087a.185.185 0 0 1-.184-.184V2.413a.179.179 0 0 1 .184-.188zm19.919 22.04h-7.791a1.1 1.1 0 0 1-.893-.691h9.577a.914.914 0 0 1-.893.691z"/>
</svg>
